<?xml version="1.0" encoding="UTF-8"?> <!-- Generator: Adobe Illustrator 24.0.0, SVG Export Plug-In . SVG Version: 6.00 Build 0) --> <svg xmlns="http://www.w3.org/2000/svg" xmlns:xlink="http://www.w3.org/1999/xlink" version="1.1" id="Laag_1" x="0px" y="0px" viewBox="0 0 1433.9 240.7" style="enable-background:new 0 0 1433.9 240.7;" xml:space="preserve"> <style type="text/css"> .st0{fill:#133149;} .st1{fill:#B30E2A;} .st2{fill:none;stroke:#B30E2A;stroke-width:3.2479;} </style> <g id="Laag_3"> <g> <polygon class="st0" points="239.8,7.1 281.3,109.6 322.7,7.1 348.5,7.1 348.5,165.9 328.5,165.9 328.5,104 330.3,38.2 288.8,138.8 273.5,138.8 232.2,38.7 234.1,104 234.1,165.9 214.1,165.9 214.1,7.1 "></polygon> <path class="st0" d="M433.4,168.1c-14.7,0-26-4.4-33.8-13.1c-7.9-8.8-11.9-21.6-12-38.5v-14.3c0-17.6,3.8-31.4,11.5-41.4 s18.4-15,32.1-15c13.8,0,24.1,4.4,31,13.2c6.8,8.8,10.3,22.5,10.5,41.1v12.6h-65.9v2.7c0,12.6,2.4,21.8,7.1,27.6 c4.8,5.7,11.6,8.6,20.6,8.6c5.7,0,10.7-1.1,15-3.2s8.4-5.5,12.2-10.2l10,12.2C463.4,162.2,450.6,168.1,433.4,168.1 M431.3,62.3 c-8,0-13.9,2.7-17.8,8.2s-6,14-6.5,25.6h46.5v-2.6c-0.5-11.2-2.5-19.2-6.1-24S438.5,62.3,431.3,62.3"></path> <path class="st0" d="M503,101.5c0-18.2,3.4-32,10.2-41.5s16.6-14.3,29.3-14.3c11.3,0,20.1,4.6,26.4,13.7V-1.7h19.3v167.5h-17.7 l-1-12.6c-6.3,9.9-15.4,14.8-27.2,14.8c-12.2,0-21.8-4.7-28.7-14.2s-10.5-22.9-10.6-40.2V101.5z M522.3,112.5 c0,13.2,2,22.9,5.9,29.1s10.3,9.3,19.2,9.3c9.6,0,16.8-4.8,21.5-14.5V77c-4.9-9.4-12.1-14.2-21.4-14.2c-8.9,0-15.3,3.1-19.2,9.3 s-5.9,15.7-6,28.6V112.5z"></path> <path class="st0" d="M651.3,16.6c0,3.3-0.9,6-2.7,8.2s-4.6,3.3-8.3,3.3c-3.6,0-6.4-1.1-8.2-3.3s-2.7-4.9-2.7-8.2s0.9-6,2.7-8.3 s4.5-3.4,8.2-3.4c3.6,0,6.4,1.1,8.2,3.4C650.4,10.6,651.3,13.4,651.3,16.6 M649.8,165.9h-19.3v-118h19.3V165.9z"></path> <path class="st0" d="M748.6,135.7c0-4.1-1.6-7.7-4.7-10.7c-3.1-3-9.2-6.5-18.1-10.5c-10.4-4.3-17.7-8-22-11 c-4.3-3.1-7.4-6.5-9.5-10.4s-3.2-8.5-3.2-13.9c0-9.6,3.5-17.6,10.5-23.9c7-6.4,16-9.5,26.9-9.5c11.5,0,20.7,3.3,27.7,10 s10.5,15.3,10.5,25.7h-19.2c0-5.3-1.8-9.8-5.3-13.6c-3.6-3.7-8.1-5.6-13.6-5.6c-5.7,0-10.1,1.5-13.4,4.4 c-3.2,2.9-4.9,6.9-4.9,11.8c0,3.9,1.2,7.1,3.5,9.5c2.4,2.4,8.1,5.5,17.1,9.5c14.3,5.6,24.1,11.1,29.2,16.4 c5.2,5.4,7.7,12.1,7.7,20.4c0,10.3-3.5,18.5-10.6,24.6c-7.1,6.2-16.5,9.2-28.4,9.2c-12.3,0-22.2-3.5-29.9-10.6 c-7.6-7.1-11.4-16-11.4-26.8h19.4c0.2,6.5,2.2,11.7,6,15.4c3.8,3.7,9.1,5.6,15.9,5.6c6.4,0,11.3-1.4,14.6-4.3 C747,144.4,748.6,140.5,748.6,135.7"></path> </g> <g> <path class="st0" d="M12.9,200.1l14.5,34.7L42,200.1h4.4v39.3h-3.3v-17.1l0.3-17.6l-14.6,34.7h-2.6l-14.6-34.5l0.3,17.3v17.2H8.6 v-39.3H12.9z"></path> <path class="st0" d="M99.5,220.5H81.1v16h21.1v2.8H77.7V200H102v2.8H81v14.9h18.4v2.8H99.5z"></path> <path class="st0" d="M130.7,239.4v-39.3h11c3.2,0,6.1,0.7,8.7,2.2c2.6,1.5,4.5,3.6,6,6.3s2.1,5.9,2.1,9.3v3.6 c0,3.5-0.7,6.6-2.1,9.3c-1.4,2.7-3.4,4.8-6,6.3s-5.5,2.2-8.9,2.2h-10.8V239.4z M134.1,202.9v33.7h7.5c4.1,0,7.5-1.4,10-4.1 s3.8-6.5,3.8-11.1v-3.5c0-4.5-1.2-8.1-3.7-10.9s-5.7-4.1-9.7-4.1H134.1z"></path> <path class="st0" d="M192.5,239.4h-3.3v-39.3h3.3V239.4z"></path> <path class="st0" d="M252.4,227.1c-0.5,4.1-1.9,7.3-4.4,9.5s-5.9,3.3-10,3.3c-2.9,0-5.5-0.7-7.7-2.2s-4-3.5-5.2-6.2 s-1.8-5.7-1.9-9.2v-5.1c0-3.5,0.6-6.6,1.8-9.3s3-4.8,5.3-6.3s4.9-2.2,7.9-2.2c4.2,0,7.5,1.1,10,3.4s3.9,5.4,4.3,9.4h-3.3 c-0.8-6.7-4.5-10-10.9-10c-3.6,0-6.4,1.3-8.5,4s-3.2,6.4-3.2,11.1v4.8c0,4.5,1,8.2,3.1,10.9c2.1,2.7,4.8,4.1,8.4,4.1 c3.5,0,6.1-0.8,7.9-2.5s2.9-4.2,3.3-7.5L252.4,227.1L252.4,227.1z"></path> <path class="st0" d="M303.2,228.3h-17.8l-4.1,11h-3.5l14.9-39.3h3.2l14.9,39.3h-3.5L303.2,228.3z M286.4,225.5h15.8l-7.9-21.4 L286.4,225.5z"></path> <path class="st0" d="M341.3,236.6h19.4v2.8H338v-39.3h3.3V236.6z"></path> <path class="st0" d="M427.5,239.4h-3.3v-39.3h3.3V239.4z"></path> <path class="st0" d="M464,200.1l14.5,34.7l14.6-34.7h4.4v39.3h-3.3v-17.1l0.3-17.6l-14.6,34.7h-2.6l-14.6-34.5l0.3,17.3v17.2h-3.3 v-39.3H464z"></path> <path class="st0" d="M550.2,228.3h-17.8l-4,11h-3.5l14.9-39.3h3.2l14.9,39.3h-3.5L550.2,228.3z M533.3,225.5h15.8l-7.9-21.4 L533.3,225.5z"></path> <path class="st0" d="M613.3,234.7c-1.2,1.6-3,2.9-5.4,3.8s-5.2,1.4-8.2,1.4c-3.1,0-5.8-0.7-8.2-2.2s-4.2-3.6-5.6-6.3 c-1.3-2.7-2-5.8-2-9.3v-5c0-5.5,1.4-9.8,4.1-12.9c2.8-3.2,6.5-4.7,11.1-4.7c4,0,7.3,1,9.8,3.1s3.9,4.9,4.4,8.5H610 c-0.5-2.9-1.7-5.1-3.5-6.6s-4.3-2.2-7.3-2.2c-3.7,0-6.6,1.3-8.7,3.9s-3.2,6.3-3.2,11.1v4.6c0,3,0.5,5.6,1.5,7.9s2.5,4.1,4.4,5.3 c1.9,1.3,4.1,1.9,6.5,1.9c2.9,0,5.3-0.4,7.4-1.3c1.3-0.6,2.3-1.3,3-2.1v-10.2h-10.6v-2.8h13.9v14.1H613.3z"></path> <path class="st0" d="M648.2,239.4h-3.3v-39.3h3.3V239.4z"></path> <path class="st0" d="M709.6,239.4h-3.3l-22.6-33.6v33.6h-3.3v-39.3h3.3l22.6,33.7v-33.7h3.3V239.4z"></path> <path class="st0" d="M769.5,234.7c-1.2,1.6-3,2.9-5.4,3.8s-5.2,1.4-8.2,1.4c-3.1,0-5.8-0.7-8.2-2.2s-4.2-3.6-5.6-6.3 c-1.3-2.7-2-5.8-2-9.3v-5c0-5.5,1.4-9.8,4.1-12.9c2.8-3.2,6.5-4.7,11.1-4.7c4,0,7.3,1,9.8,3.1s3.9,4.9,4.4,8.5h-3.3 c-0.5-2.9-1.7-5.1-3.5-6.6s-4.3-2.2-7.3-2.2c-3.7,0-6.6,1.3-8.7,3.9s-3.2,6.3-3.2,11.1v4.6c0,3,0.5,5.6,1.5,7.9s2.5,4.1,4.4,5.3 c1.9,1.3,4.1,1.9,6.5,1.9c2.9,0,5.3-0.4,7.4-1.3c1.3-0.6,2.3-1.3,3-2.1v-10.2h-10.6v-2.8h13.9v14.1H769.5z"></path> </g> <g> <path class="st1" d="M116.7,108.3c1.4-6.2,1.9-12.5,2.4-19.1c0.6-6.6,1-13.2,1.6-20c0.6-6.7,1.3-13.5,2.6-20.5 c0.7-3.5,1.6-7,3-10.6c0.7-1.8,1.6-3.7,2.9-5.5c1.3-1.8,3-3.7,5.4-5.1c1.2-0.7,2.6-1.2,3.9-1.5c0.7-0.2,1.4-0.2,2.1-0.3 c0.3,0,0.7,0,1,0h0.9c2.3,0.1,4.7,0.7,6.7,1.6c2.1,0.9,3.9,2.1,5.5,3.4c1.6,1.3,3,2.7,4.2,4.2c2.3,2.7,4.1,5.4,5.8,8.2V18.8 c0-7.7-6.3-14.1-14.1-14.1H15.4C7.7,4.7,1.3,11,1.3,18.8V133c0.1,0,0.1,0,0.2,0c0.1,0,0.3-0.1,0.5-0.2s0.4-0.3,0.7-0.5 c1-0.8,2.4-2.6,3.6-4.8c1.2-2.2,2.3-4.9,3.3-7.7c1-2.8,1.8-5.8,2.6-8.8c1.6-6.1,2.9-12.4,4-18.9c1.2-6.4,2.3-13,3.4-19.6 c1.2-6.6,2.3-13.3,3.9-20.1c0.8-3.4,1.6-6.8,2.6-10.3c1-3.5,2.2-7,3.9-10.6c0.8-1.8,1.8-3.6,3-5.5s2.7-3.8,4.8-5.6 c1-0.9,2.2-1.7,3.6-2.4s2.9-1.3,4.4-1.6c0.8-0.2,1.6-0.3,2.3-0.3c0.8-0.1,1.5-0.1,2.4,0c1.6,0.1,3.2,0.4,4.6,0.9 c2.8,1,5,2.5,6.8,3.9c1.8,1.5,3.2,3.1,4.5,4.6c2.6,3.1,4.6,6.3,6.4,9.4c3.6,6.3,6.4,12.5,9.1,18.8s5.1,12.5,7.6,18.8 c2.4,6.2,4.8,12.4,7.3,18.5c2.5,6,5.1,12,8.1,17.4c0,0,6.1,11.6,8.2,9.1C115.2,115.4,116.2,110.5,116.7,108.3z"></path> <path class="st1" d="M54.4,36.1c1.7,2,3.4,4.4,5,7c3.2,5.2,6,11.1,8.7,17s5.3,12,7.8,18.2c2.6,6.1,5.1,12.3,7.9,18.5 c2.8,6.2,5.6,12.4,9.2,18.6c1.8,3.1,3.8,6.2,6.4,9.3c1.4,1.5,2.9,3.1,5,4.6c1.1,0.7,2.3,1.4,3.8,1.9c0.7,0.3,1.5,0.5,2.4,0.6 c0.4,0.1,0.8,0.1,1.3,0.1h0.7c0.2,0,0.4,0,0.6,0c1.6-0.1,3.3-0.5,4.9-1.1c1.6-0.7,2.9-1.7,3.9-2.7c2.1-2.1,3.3-4.2,4.2-6.1 c0.9-2,1.5-3.9,2-5.7c0.5-1.8,0.9-3.6,1.2-5.4c0.6-3.6,1.1-7,1.4-10.4c0.3-3.4,0.6-6.8,0.8-10.2c0.4-6.7,0.7-13.4,1.1-20 c0.4-6.6,0.9-13.1,2-19.2c0.5-3.1,1.2-6.1,2.2-8.6c0.5-1.3,1-2.5,1.6-3.4s1.2-1.5,1.7-1.8c0.2-0.2,0.5-0.2,0.7-0.3 c0.1,0,0.3-0.1,0.4-0.1h0.2h0.4c1,0,2,0.2,3,0.6c2,0.8,4,2.4,5.9,4.6c1.9,2.1,3.7,4.6,5.3,7.3s3.2,5.5,4.7,8.4 c1.3,2.5,2.6,5,3.9,7.6V154c0,7.7-6.3,14.1-14.1,14.1H15.4c-7.4,0-13.5-5.9-14-13.2c2.7-0.1,5.6-0.7,8.2-1.8 c1.4-0.6,2.7-1.3,4-2.1c1.2-0.8,2.3-1.7,3.3-2.6c2-1.8,3.5-3.7,4.9-5.6c1.3-1.9,2.4-3.8,3.3-5.6c1.8-3.7,3.1-7.3,4.2-10.9 c1.1-3.5,1.9-7,2.7-10.5c1.5-6.9,2.6-13.7,3.5-20.4c1-6.7,1.8-13.4,2.7-19.9c0.9-6.6,1.8-13,2.9-19.3c0.6-3.1,1.2-6.2,2-9.2 c0.7-3,1.6-5.8,2.6-8.3c0.5-1.2,1.1-2.4,1.6-3.3c0,0,1.7-2.9,2.8-2.7C51.1,32.7,53,34.3,54.4,36.1z"></path> </g> </g> <g id="Laag_2_1_"> <g> <g> <path class="st0" d="M858.5,92.1h-8V45.9h8V92.1z"></path> <path class="st0" d="M878.7,57.7l0.2,3.6c2.4-2.8,5.7-4.2,9.9-4.2c4.6,0,7.7,1.8,9.4,5.3c2.5-3.5,6-5.3,10.5-5.3 c3.8,0,6.6,1,8.5,3.1s2.8,5.2,2.8,9.3v22.6h-7.7V69.8c0-2.2-0.5-3.8-1.4-4.8c-1-1-2.5-1.5-4.7-1.5c-1.8,0-3.2,0.5-4.3,1.4 s-1.9,2.2-2.3,3.7v23.5h-7.7V69.5c-0.1-4-2.2-6.1-6.2-6.1c-3.1,0-5.3,1.3-6.6,3.8v24.9h-7.7V57.8L878.7,57.7L878.7,57.7z"></path> <path class="st0" d="M952.3,92.1c-0.3-0.7-0.6-1.7-0.9-3.2c-2.5,2.6-5.5,3.8-9,3.8c-3.4,0-6.3-1-8.4-3c-2.2-2-3.3-4.4-3.3-7.3 c0-3.7,1.4-6.5,4.1-8.4c2.7-2,6.6-2.9,11.7-2.9h4.7v-2.3c0-1.8-0.5-3.2-1.5-4.3s-2.5-1.6-4.5-1.6c-1.8,0-3.2,0.4-4.3,1.3 c-1.1,0.9-1.7,2-1.7,3.3h-7.7c0-1.9,0.6-3.6,1.9-5.3s2.9-2.9,5.1-3.9c2.1-0.9,4.5-1.4,7.2-1.4c4,0,7.2,1,9.6,3 c2.4,2,3.6,4.9,3.7,8.5v15.5c0,3.1,0.4,5.6,1.3,7.4v0.5h-8V92.1z M943.8,86.5c1.5,0,3-0.4,4.3-1.1c1.3-0.7,2.4-1.7,3-3v-6.5H947 c-2.9,0-5,0.5-6.4,1.5s-2.2,2.4-2.2,4.2c0,1.5,0.5,2.7,1.5,3.5C940.9,86.1,942.2,86.5,943.8,86.5z"></path> <path class="st0" d="M969.4,74.6c0-5.3,1.3-9.6,3.8-12.8s5.8-4.8,10-4.8c3.9,0,7,1.4,9.2,4.1l0.3-3.5h6.9V91 c0,4.5-1.4,8.1-4.2,10.7s-6.6,3.9-11.3,3.9c-2.5,0-5-0.5-7.4-1.6c-2.4-1-4.2-2.4-5.5-4.1l3.6-4.6c2.4,2.8,5.3,4.2,8.8,4.2 c2.6,0,4.6-0.7,6.1-2.1s2.2-3.4,2.2-6.1V89c-2.2,2.5-5.2,3.7-8.9,3.7c-4,0-7.3-1.6-9.9-4.8C970.7,84.7,969.4,80.3,969.4,74.6z M977.1,75.3c0,3.4,0.7,6.2,2.1,8.1c1.4,2,3.4,3,5.9,3c3.1,0,5.4-1.3,6.9-4V67.3c-1.5-2.6-3.7-3.9-6.9-3.9c-2.5,0-4.5,1-5.9,3 C977.8,68.4,977.1,71.4,977.1,75.3z"></path> <path class="st0" d="M1011.5,48.8c0-1.2,0.4-2.2,1.1-3c0.8-0.8,1.8-1.2,3.2-1.2c1.4,0,2.5,0.4,3.2,1.2c0.8,0.8,1.1,1.8,1.1,3 s-0.4,2.1-1.1,2.9c-0.8,0.8-1.8,1.2-3.2,1.2c-1.4,0-2.5-0.4-3.2-1.2S1011.5,50,1011.5,48.8z M1019.7,92.1h-7.7V57.8h7.7V92.1z"></path> <path class="st0" d="M1039.1,57.7l0.2,4c2.5-3.1,5.9-4.6,10-4.6c7.1,0,10.8,4.1,10.9,12.3v22.7h-7.7V69.9c0-2.2-0.5-3.8-1.4-4.8 s-2.5-1.6-4.6-1.6c-3.1,0-5.4,1.4-6.9,4.2v24.4h-7.7V57.8h7.2V57.7z"></path> <path class="st0" d="M1070.6,74.6c0-5.3,1.3-9.6,3.8-12.8s5.8-4.8,10-4.8c3.9,0,7,1.4,9.2,4.1l0.3-3.5h6.9V91 c0,4.5-1.4,8.1-4.2,10.7s-6.6,3.9-11.3,3.9c-2.5,0-5-0.5-7.4-1.6c-2.4-1-4.2-2.4-5.5-4.1l3.6-4.6c2.4,2.8,5.3,4.2,8.8,4.2 c2.6,0,4.6-0.7,6.1-2.1s2.2-3.4,2.2-6.1V89c-2.2,2.5-5.2,3.7-8.9,3.7c-4,0-7.3-1.6-9.9-4.8C1071.8,84.7,1070.6,80.3,1070.6,74.6z M1078.2,75.3c0,3.4,0.7,6.2,2.1,8.1c1.4,2,3.4,3,5.9,3c3.1,0,5.4-1.3,6.9-4V67.3c-1.5-2.6-3.7-3.9-6.9-3.9c-2.5,0-4.5,1-5.9,3 C1078.9,68.4,1078.2,71.4,1078.2,75.3z"></path> <path class="st0" d="M1157.5,80.2c0-2-0.7-3.6-2.1-4.7c-1.4-1.1-4-2.2-7.7-3.3s-6.7-2.4-8.9-3.7c-4.2-2.6-6.3-6.1-6.3-10.3 c0-3.7,1.5-6.8,4.6-9.2c3-2.4,7-3.6,11.8-3.6c3.2,0,6.1,0.6,8.6,1.8s4.5,2.9,5.9,5.1c1.4,2.2,2.2,4.6,2.2,7.3h-8 c0-2.4-0.8-4.3-2.3-5.7s-3.7-2-6.5-2c-2.6,0-4.7,0.6-6.1,1.7c-1.4,1.1-2.2,2.7-2.2,4.7c0,1.7,0.8,3.1,2.3,4.2 c1.6,1.1,4.1,2.2,7.7,3.3s6.5,2.3,8.7,3.6s3.8,2.9,4.8,4.7s1.5,3.8,1.5,6.2c0,3.8-1.5,6.9-4.4,9.2c-3,2.3-7,3.4-12,3.4 c-3.3,0-6.4-0.6-9.2-1.9c-2.8-1.2-5-2.9-6.5-5.1c-1.6-2.2-2.3-4.7-2.3-7.6h8c0,2.6,0.9,4.7,2.6,6.1c1.7,1.4,4.2,2.2,7.5,2.2 c2.8,0,4.9-0.6,6.3-1.7C1156.8,83.5,1157.5,82,1157.5,80.2z"></path> <path class="st0" d="M1174.3,74.6c0-3.4,0.7-6.4,2-9.1c1.3-2.7,3.2-4.8,5.6-6.2s5.2-2.2,8.3-2.2c4.6,0,8.4,1.5,11.3,4.5 s4.4,6.9,4.7,11.9v1.8c0,3.4-0.7,6.4-2,9.1c-1.3,2.7-3.2,4.7-5.6,6.2s-5.2,2.2-8.4,2.2c-4.8,0-8.7-1.6-11.6-4.8 c-2.9-3.2-4.4-7.5-4.4-12.9L1174.3,74.6L1174.3,74.6z M1182,75.2c0,3.5,0.7,6.3,2.2,8.3s3.5,3,6.1,3s4.6-1,6.1-3 c1.4-2,2.2-5,2.2-8.9c0-3.5-0.7-6.2-2.2-8.2s-3.5-3-6.1-3c-2.5,0-4.5,1-6,3C1182.7,68.3,1182,71.3,1182,75.2z"></path> <path class="st0" d="M1224.7,92.1h-7.7V43.4h7.7V92.1z"></path> <path class="st0" d="M1257.8,88.7c-2.3,2.7-5.5,4-9.6,4c-3.7,0-6.5-1.1-8.5-3.3c-1.9-2.2-2.9-5.3-2.9-9.5V57.7h7.7v22.1 c0,4.4,1.8,6.5,5.4,6.5c3.7,0,6.3-1.3,7.6-4V57.6h7.7v34.3h-7.3L1257.8,88.7z"></path> <path class="st0" d="M1286.6,49.4v8.3h6.1v5.7h-6.1v19.2c0,1.3,0.3,2.3,0.8,2.8c0.5,0.6,1.4,0.9,2.8,0.9c0.9,0,1.8-0.1,2.7-0.3v6 c-1.8,0.5-3.4,0.7-5.1,0.7c-5.9,0-8.9-3.3-8.9-9.8V63.5h-5.6v-5.7h5.6v-8.3h7.7V49.4z"></path> <path class="st0" d="M1302.4,48.8c0-1.2,0.4-2.2,1.1-3c0.8-0.8,1.8-1.2,3.2-1.2c1.4,0,2.5,0.4,3.2,1.2c0.8,0.8,1.1,1.8,1.1,3 s-0.4,2.1-1.1,2.9c-0.8,0.8-1.8,1.2-3.2,1.2c-1.4,0-2.5-0.4-3.2-1.2S1302.4,50,1302.4,48.8z M1310.6,92.1h-7.7V57.8h7.7V92.1z"></path> <path class="st0" d="M1321.4,74.6c0-3.4,0.7-6.4,2-9.1c1.3-2.7,3.2-4.8,5.6-6.2s5.2-2.2,8.3-2.2c4.6,0,8.4,1.5,11.3,4.5 s4.4,6.9,4.7,11.9v1.8c0,3.4-0.7,6.4-2,9.1c-1.3,2.7-3.2,4.7-5.6,6.2s-5.2,2.2-8.4,2.2c-4.8,0-8.7-1.6-11.6-4.8 c-2.9-3.2-4.4-7.5-4.4-12.9L1321.4,74.6L1321.4,74.6z M1329.1,75.2c0,3.5,0.7,6.3,2.2,8.3s3.5,3,6.1,3s4.6-1,6.1-3 c1.4-2,2.2-5,2.2-8.9c0-3.5-0.7-6.2-2.2-8.2s-3.5-3-6.1-3c-2.5,0-4.5,1-6,3C1329.8,68.3,1329.1,71.3,1329.1,75.2z"></path> <path class="st0" d="M1370.8,57.7l0.2,4c2.5-3.1,5.9-4.6,10-4.6c7.1,0,10.8,4.1,10.9,12.3v22.7h-7.7V69.9c0-2.2-0.5-3.8-1.4-4.8 s-2.5-1.6-4.6-1.6c-3.1,0-5.4,1.4-6.9,4.2v24.4h-7.7V57.8h7.2V57.7z"></path> <path class="st0" d="M1422.9,82.7c0-1.4-0.6-2.4-1.7-3.1c-1.1-0.7-3-1.4-5.6-1.9s-4.8-1.2-6.6-2.1c-3.8-1.9-5.8-4.6-5.8-8.1 c0-3,1.2-5.4,3.7-7.4s5.7-3,9.5-3c4.1,0,7.4,1,9.9,3s3.8,4.7,3.8,7.9h-7.7c0-1.5-0.6-2.7-1.6-3.7c-1.1-1-2.6-1.5-4.4-1.5 c-1.7,0-3.1,0.4-4.1,1.2c-1.1,0.8-1.6,1.8-1.6,3.1c0,1.2,0.5,2.1,1.5,2.8s3,1.3,6,2s5.4,1.5,7.1,2.4s3,2,3.8,3.3s1.3,2.9,1.3,4.7 c0,3.1-1.3,5.6-3.8,7.5c-2.6,1.9-5.9,2.9-10.1,2.9c-2.8,0-5.3-0.5-7.5-1.5s-3.9-2.4-5.1-4.2c-1.2-1.8-1.8-3.7-1.8-5.7h7.5 c0.1,1.8,0.8,3.2,2.1,4.2c1.3,1,3,1.5,5,1.5s3.6-0.4,4.6-1.2C1422.3,85,1422.9,84,1422.9,82.7z"></path> </g> </g> <g> <path class="st0" d="M849.3,123.2c0-1.2,0.4-2.2,1.1-3c0.8-0.8,1.8-1.2,3.2-1.2s2.5,0.4,3.2,1.2c0.8,0.8,1.1,1.8,1.1,3 s-0.4,2.1-1.1,2.9c-0.8,0.8-1.8,1.2-3.2,1.2s-2.5-0.4-3.2-1.2C849.6,125.4,849.3,124.4,849.3,123.2z M857.5,166.5h-7.7v-34.3h7.7 V166.5z"></path> <path class="st0" d="M876.8,132.1l0.2,4c2.5-3.1,5.9-4.6,10-4.6c7.1,0,10.8,4.1,10.9,12.3v22.7h-7.7v-22.2c0-2.2-0.5-3.8-1.4-4.8 s-2.5-1.6-4.6-1.6c-3.1,0-5.4,1.4-6.9,4.2v24.4h-7.7v-34.3h7.2V132.1z"></path> <path class="st0" d="M950.2,166.5c-0.3-0.7-0.6-1.7-0.9-3.2c-2.5,2.6-5.5,3.8-9,3.8c-3.4,0-6.3-1-8.4-3c-2.2-2-3.3-4.4-3.3-7.3 c0-3.7,1.4-6.5,4.1-8.4c2.7-2,6.6-2.9,11.7-2.9h4.7v-2.3c0-1.8-0.5-3.2-1.5-4.3c-1-1.1-2.5-1.6-4.5-1.6c-1.8,0-3.2,0.4-4.3,1.3 s-1.7,2-1.7,3.3h-7.7c0-1.9,0.6-3.6,1.9-5.3c1.2-1.6,2.9-2.9,5.1-3.9s4.5-1.4,7.2-1.4c4,0,7.2,1,9.6,3c2.4,2,3.6,4.9,3.7,8.5v15.5 c0,3.1,0.4,5.6,1.3,7.4v0.5h-8V166.5z M941.7,160.9c1.5,0,3-0.4,4.3-1.1s2.4-1.7,3-3v-6.5h-4.2c-2.9,0-5,0.5-6.4,1.5 s-2.2,2.4-2.2,4.2c0,1.5,0.5,2.7,1.5,3.5C938.7,160.5,940.1,160.9,941.7,160.9z"></path> <path class="st0" d="M1026.1,166.5h-8V146h-20.7v20.5h-8v-46.2h8v19.2h20.7v-19.2h8V166.5z"></path> <path class="st0" d="M1053.8,167.1c-4.9,0-8.8-1.5-11.9-4.6c-3-3.1-4.6-7.2-4.6-12.3v-1c0-3.4,0.7-6.5,2-9.2s3.2-4.8,5.6-6.3 s5.1-2.3,8-2.3c4.7,0,8.3,1.5,10.8,4.5s3.8,7.2,3.8,12.7v3.1h-22.4c0.2,2.8,1.2,5.1,2.8,6.7c1.7,1.6,3.7,2.5,6.3,2.5 c3.5,0,6.4-1.4,8.6-4.3l4.2,4c-1.4,2.1-3.2,3.6-5.5,4.8C1059.2,166.5,1056.6,167.1,1053.8,167.1z M1052.9,137.7 c-2.1,0-3.8,0.7-5.1,2.2c-1.3,1.5-2.1,3.5-2.5,6.2h14.7v-0.6c-0.2-2.6-0.9-4.5-2.1-5.9C1056.7,138.4,1055,137.7,1052.9,137.7z"></path> <path class="st0" d="M1097.9,166.5c-0.3-0.7-0.6-1.7-0.9-3.2c-2.5,2.6-5.5,3.8-9,3.8c-3.4,0-6.3-1-8.4-3c-2.2-2-3.3-4.4-3.3-7.3 c0-3.7,1.4-6.5,4.1-8.4c2.7-2,6.6-2.9,11.7-2.9h4.7v-2.3c0-1.8-0.5-3.2-1.5-4.3c-1-1.1-2.5-1.6-4.5-1.6c-1.8,0-3.2,0.4-4.3,1.3 c-1.1,0.9-1.7,2-1.7,3.3h-7.7c0-1.9,0.6-3.6,1.9-5.3c1.2-1.6,2.9-2.9,5.1-3.9s4.5-1.4,7.2-1.4c4,0,7.2,1,9.6,3s3.6,4.9,3.7,8.5 v15.5c0,3.1,0.4,5.6,1.3,7.4v0.5h-8V166.5z M1089.5,160.9c1.5,0,3-0.4,4.3-1.1s2.4-1.7,3-3v-6.5h-4.2c-2.9,0-5,0.5-6.4,1.5 s-2.2,2.4-2.2,4.2c0,1.5,0.5,2.7,1.5,3.5C1086.5,160.5,1087.8,160.9,1089.5,160.9z"></path> <path class="st0" d="M1134.4,139.2c-1-0.2-2.1-0.3-3.1-0.3c-3.5,0-5.9,1.4-7.1,4.1v23.5h-7.7v-34.3h7.4l0.2,3.8 c1.9-3,4.4-4.5,7.7-4.5c1.1,0,2,0.1,2.7,0.4L1134.4,139.2z"></path> <path class="st0" d="M1154.4,123.8v8.3h6.1v5.7h-6.1V157c0,1.3,0.3,2.3,0.8,2.8c0.5,0.6,1.4,0.9,2.8,0.9c0.9,0,1.8-0.1,2.7-0.3v6 c-1.8,0.5-3.4,0.7-5.1,0.7c-5.9,0-8.9-3.3-8.9-9.8v-19.4h-5.6v-5.7h5.6v-8.3h7.7V123.8z"></path> <path class="st0" d="M1200.3,149.7c0,5.3-1.2,9.6-3.6,12.7c-2.4,3.2-5.7,4.7-9.8,4.7c-4,0-7.1-1.4-9.4-4.3l-0.4,3.7h-7v-48.7h7.7 v17.7c2.2-2.6,5.2-3.9,9-3.9c4.2,0,7.5,1.6,9.9,4.7s3.6,7.5,3.6,13L1200.3,149.7L1200.3,149.7z M1192.6,149c0-3.7-0.7-6.5-2-8.4 s-3.2-2.8-5.7-2.8c-3.3,0-5.7,1.5-7,4.4v14.1c1.4,3,3.7,4.5,7.1,4.5c2.4,0,4.3-0.9,5.6-2.7s2-4.5,2-8.2V149z"></path> <path class="st0" d="M1225.8,167.1c-4.9,0-8.8-1.5-11.9-4.6c-3-3.1-4.6-7.2-4.6-12.3v-1c0-3.4,0.7-6.5,2-9.2s3.2-4.8,5.6-6.3 s5.1-2.3,8-2.3c4.7,0,8.3,1.5,10.8,4.5s3.8,7.2,3.8,12.7v3.1h-22.4c0.2,2.8,1.2,5.1,2.8,6.7c1.7,1.6,3.7,2.5,6.3,2.5 c3.5,0,6.4-1.4,8.6-4.3l4.2,4c-1.4,2.1-3.2,3.6-5.5,4.8C1231.2,166.5,1228.6,167.1,1225.8,167.1z M1224.8,137.7 c-2.1,0-3.8,0.7-5.1,2.2c-1.3,1.5-2.1,3.5-2.5,6.2h14.7v-0.6c-0.2-2.6-0.9-4.5-2.1-5.9C1228.6,138.4,1227,137.7,1224.8,137.7z"></path> <path class="st0" d="M1269.9,166.5c-0.3-0.7-0.6-1.7-0.9-3.2c-2.5,2.6-5.5,3.8-9,3.8c-3.4,0-6.3-1-8.4-3c-2.2-2-3.3-4.4-3.3-7.3 c0-3.7,1.4-6.5,4.1-8.4c2.7-2,6.6-2.9,11.7-2.9h4.7v-2.3c0-1.8-0.5-3.2-1.5-4.3c-1-1.1-2.5-1.6-4.5-1.6c-1.8,0-3.2,0.4-4.3,1.3 c-1.1,0.9-1.7,2-1.7,3.3h-7.7c0-1.9,0.6-3.6,1.9-5.3c1.2-1.6,2.9-2.9,5.1-3.9s4.5-1.4,7.2-1.4c4,0,7.2,1,9.6,3s3.6,4.9,3.7,8.5 v15.5c0,3.1,0.4,5.6,1.3,7.4v0.5h-8V166.5z M1261.4,160.9c1.5,0,3-0.4,4.3-1.1s2.4-1.7,3-3v-6.5h-4.2c-2.9,0-5,0.5-6.4,1.5 s-2.2,2.4-2.2,4.2c0,1.5,0.5,2.7,1.5,3.5C1258.5,160.5,1259.8,160.9,1261.4,160.9z"></path> <path class="st0" d="M1298,123.8v8.3h6.1v5.7h-6.1V157c0,1.3,0.3,2.3,0.8,2.8c0.5,0.6,1.4,0.9,2.8,0.9c0.9,0,1.8-0.1,2.7-0.3v6 c-1.8,0.5-3.4,0.7-5.1,0.7c-5.9,0-8.9-3.3-8.9-9.8v-19.4h-5.6v-5.7h5.6v-8.3h7.7V123.8z"></path> </g> <line class="st2" x1="809.4" y1="16.9" x2="809.4" y2="180.8"></line> </g> </svg> 